<svg version="1.1" xmlns="http://www.w3.org/2000/svg" xmlns:xlink="http://www.w3.org/1999/xlink" width="800px" height="800px" viewBox="0,0,256,256"><g fill="#ffffff" fill-rule="nonzero" stroke="none" stroke-width="1" stroke-linecap="butt" stroke-linejoin="miter" stroke-miterlimit="10" stroke-dasharray="" stroke-dashoffset="0" font-family="none" font-weight="none" font-size="none" text-anchor="none" style="mix-blend-mode: normal"><g transform="scale(0.52352,0.52352)"><g><path d="M244.5,0c-135.2,0 -244.5,109.3 -244.5,244.5c0,135.2 109.3,244.5 244.5,244.5c135.2,0 244.5,-109.3 244.5,-244.5c0,-135.2 -109.3,-244.5 -244.5,-244.5zM170.7,33.3c-12.9,18.1 -23.9,37.2 -33.1,57.2h-55.5c24.2,-25.6 54.5,-45.4 88.6,-57.2zM64.6,111.3h64.2c-15.1,38.9 -23.4,80.4 -24.6,122.8h-83.1c2.1,-45.9 17.9,-88.2 43.5,-122.8zM64.6,377.7c-25.6,-34.6 -41.4,-76.9 -43.5,-122.8h83.1c1.2,42.4 9.8,83.9 25,122.8zM82.1,398.5h56c9.3,20 20.3,39.3 33,57.4c-34.2,-11.8 -64.7,-31.7 -89,-57.4zM234.1,468c-10.4,-0.5 -20.7,-1.7 -30.7,-3.5c-16.6,-20.5 -30.8,-42.6 -42.3,-65.9h73zM234.1,377.7h-82.5c-16.1,-38.8 -25.3,-80.3 -26.6,-122.8h109.1zM234.1,234.1h-109.1c1.3,-42.4 10.4,-84 26.4,-122.8h82.7zM234.2,90.5h-0.1h-73.2c11.6,-23.5 25.8,-45.6 42.5,-65.9c10,-1.9 20.3,-3 30.8,-3.5zM424.4,111.3c25.6,34.6 41.5,76.8 43.5,122.8h-83.1c-1.2,-42.4 -9.8,-83.9 -25,-122.8zM406.9,90.5h-56c-9.3,-20 -20.3,-39.3 -33.1,-57.4c34.3,11.8 64.8,31.7 89.1,57.4zM254.9,21.1c10.4,0.5 20.7,1.7 30.7,3.5c16.6,20.5 30.8,42.6 42.3,65.9h-73zM254.9,111.3h82.5c16.1,38.7 25.3,80.3 26.6,122.8h-109.1zM254.9,254.9h109.1c-1.3,42.4 -10.4,84 -26.4,122.8h-82.7zM254.8,467.9v-69.4h0.1h73.2c-11.6,23.5 -25.8,45.6 -42.5,65.9c-10,1.9 -20.3,3 -30.8,3.5zM317.8,455.9c12.7,-18.1 23.7,-37.4 32.9,-57.4h56.3c-24.4,25.7 -54.9,45.6 -89.2,57.4zM359.5,377.7c15,-38.9 23.5,-80.4 25.2,-122.8h83.3c-2.1,45.9 -17.9,88.2 -43.5,122.8z"></path></g></g></g></svg>